<svg xmlns="http://www.w3.org/2000/svg" viewBox="0 0 512 512" role="img" aria-labelledby="title desc">
  <title id="title">minnow-rs logo</title>
  <desc id="desc">A small stylized minnow with packet-like network lines on a white background.</desc>
  <rect width="512" height="512" fill="#ffffff"/>
  <g transform="translate(52 116)">
    <path d="M346 132c39-43 78-62 118-58-19 27-27 56-25 88-33-8-64-18-93-30z" fill="#45b8d8"/>
    <path d="M346 132c39 43 78 62 118 58-19-27-27-56-25-88-33 8-64 18-93 30z" fill="#2587c7"/>
    <path d="M35 137c48-72 131-111 230-104 67 5 119 39 154 99-35 60-87 94-154 99-99 7-182-32-230-94z" fill="#57c7e6"/>
    <path d="M64 137c47-45 109-68 185-68 64 0 116 22 154 63-38 41-90 63-154 63-76 0-138-20-185-58z" fill="#f5fbff" opacity=".28"/>
    <path d="M35 137c48-72 131-111 230-104 67 5 119 39 154 99-35 60-87 94-154 99-99 7-182-32-230-94z" fill="none" stroke="#116a9f" stroke-width="12" stroke-linejoin="round"/>
    <path d="M72 137c29-25 70-41 122-49" fill="none" stroke="#ffffff" stroke-width="13" stroke-linecap="round" opacity=".8"/>
    <circle cx="138" cy="113" r="16" fill="#12394d"/>
    <circle cx="144" cy="106" r="5" fill="#ffffff"/>
    <path d="M224 41c13-30 41-43 84-39-19 21-30 46-33 75" fill="#2aa6cf" stroke="#116a9f" stroke-width="10" stroke-linejoin="round"/>
    <path d="M220 233c14 27 42 39 85 35-20-20-32-43-37-71" fill="#2587c7" stroke="#116a9f" stroke-width="10" stroke-linejoin="round"/>
    <g fill="none" stroke="#0c5f8f" stroke-width="10" stroke-linecap="round">
      <path d="M200 121h92"/>
      <path d="M214 151h65"/>
      <path d="M244 91h51"/>
    </g>
    <g fill="#0c5f8f">
      <rect x="302" y="112" width="23" height="18" rx="4"/>
      <rect x="289" y="142" width="23" height="18" rx="4"/>
      <rect x="305" y="82" width="23" height="18" rx="4"/>
    </g>
  </g>
</svg>
